# AST/ASF file generated using VICON BodyLanguage
# -----------------------------------------------
:version 1.10
:name VICON
:units
  mass 1.0
  length 0.45
  angle deg
:documentation
   .ast/.asf automatically generated from VICON data using
   VICON BodyBuilder and BodyLanguage model FoxedUp or BRILLIANT.MOD
:root
   order TX TY TZ RX RY RZ
   axis XYZ
   position 0 0 0  
   orientation 0 0 0 
:bonedata
  begin
     id 1 
     name lhipjoint
     direction 0.584852 -0.759097 0.285867 
     length 2.43633 
     axis 0 0 0  XYZ
  end
  begin
     id 2 
     name lfemur
     direction 0.34202 -0.939693 0  
     length 7.14704  
     axis 0 0 20  XYZ
    dof rx ry rz
    limits (-160.0 20.0)
           (-70.0 70.0)
           (-60.0 70.0)
  end
  begin
     id 3 
     name ltibia
     direction 0.342022 -0.939692 0   
     length 7.68483   
     axis 0 0 20   XYZ
    dof rx
    limits (-10.0 170.0)
  end
  begin
     id 4 
     name lfoot
     direction 0.0999605 -0.274639 0.956337   
     length 2.40452   
     axis -90 7.62852e-016 20   XYZ
    dof rx rz
    limits (-45.0 90.0)
           (-70.0 20.0)
  end
  begin
     id 5 
     name ltoes
     direction 1.53468e-011 -4.21881e-011 1   
     length 1.19837   
     axis -90 7.62852e-016 20   XYZ
    dof rx
    limits (-90.0 20.0)
  end
  begin
     id 6 
     name rhipjoint
     direction -0.569886 -0.769002 0.289597   
     length 2.40495  
     axis 0 0 0  XYZ 
  end
  begin
     id 7 
     name rfemur
     direction -0.34202 -0.939693 0   
     length 7.45086   
     axis 0 0 -20   XYZ
    dof rx ry rz
    limits (-160.0 20.0)
           (-70.0 70.0)
           (-70.0 60.0)
  end
  begin
     id 8 
     name rtibia
     direction -0.34202 -0.939693 0   
     length 7.76831   
     axis 0 0 -20   XYZ
    dof rx
    limits (-10.0 170.0)
 end
 begin
     id 9 
     name rfoot
     direction -0.0798572 -0.219406 0.97236   
     length 2.35911  
     axis -90 -7.62852e-016 -20   XYZ
    dof rx rz
    limits (-45.0 90.0)
           (-20.0 70.0)
  end
  begin
     id 10 
     name rtoes
     direction -1.53469e-011 -4.21728e-011 1   
     length 1.18261   
     axis -90 -7.62852e-016 -20   XYZ
    dof rx
    limits (-90.0 20.0)
  end
  begin
     id 11 
     name lowerback
     direction 0.0242088 0.999437 0.0232389   
     length 2.1561   
     axis 0 0 0   XYZ
    dof rx ry rz
    limits (-20.0 45.0)
           (-30.0 30.0)
           (-30.0 30.0)
  end
  begin
     id 12 
     name upperback
     direction -0.0356893 0.999013 -0.0264323   
     length 2.14431   
     axis 0 0 0   XYZ
    dof rx ry rz
    limits (-20.0 45.0)
           (-30.0 30.0)
           (-30.0 30.0)
  end
  begin
     id 13 
     name thorax
     direction -0.0472163 0.998194 -0.0371284   
     length 2.16169   
     axis 0 0 0   XYZ
    dof rx ry rz
    limits (-20.0 45.0)
           (-30.0 30.0)
           (-30.0 30.0)
  end
  begin
     id 14 
     name lowerneck
     direction 0.00863244 0.999921 0.00911972   
     length 1.58651   
     axis 0 0 0   XYZ
    dof rx ry rz
    limits (-20.0 45.0)
           (-30.0 30.0)
           (-30.0 30.0)
  end
  begin
     id 15 
     name upperneck
     direction 0.149523 0.979068 -0.138086   
     length 1.57486   
     axis 0 0 0   XYZ
    dof rx ry rz
    limits (-20.0 45.0)
           (-30.0 30.0)
           (-30.0 30.0)
  end
  begin
     id 16
     name head
     direction 0.0445219 0.997708 -0.0509576  
     length 1.6019  
     axis 0 0 0   XYZ
    dof rx ry rz
    limits (-20.0 45.0)
           (-30.0 30.0)
           (-30.0 30.0)
  end
  begin
     id 17 
     name lclavicle
     direction 0.911271 0.381667 -0.154644  
     length 3.80848  
     axis 0 0 0   XYZ
    dof ry rz
    limits (-20.0 10.0)
           (0.0 20.0)
  end
  begin
     id 18 
     name lhumerus
     direction 1 -4.49003e-011 2.1308e-027   
     length 5.19069   
     axis 180 -30 -90   XYZ
    dof rx ry rz
    limits (-60.0 90.0)
           (-90.0 90.0)
           (-90.0 90.0)
  end
  begin
     id 19
     name lradius
     direction 1 -4.48914e-011 4.01554e-027   
     length 3.30016   
     axis 180 -30 -90   XYZ
    dof rx
    limits (-10.0 170.0)
  end
  begin
     id 20
     name lwrist
     direction 1 -4.49003e-011 1.1934e-026   
     length 1.65008   
     axis -8.46377e-015 90 90   XYZ
    dof ry
    limits (-180.0 0.0)
 end
  begin
     id 21 
     name lhand
     direction 1 -4.49034e-011 2.38659e-026   
     length 0.707698   
     axis -1.52313e-014 90 90   XYZ
    dof rx rz
    limits (-90.0 90.0)
           (-45.0 45.0)
  end
  begin
     id 22 
     name lfingers
     direction 1 -4.48691e-011 4.77775e-026   
     length 0.570564   
     axis -3.04623e-014 90 90   XYZ
    dof rx
    limits (0.0 90.0)
  end
  begin
     id 23
     name lthumb
     direction 0.707107 -6.34832e-011 0.707107   
     length 0.819219   
     axis -90 45 -1.62303e-014   XYZ
    dof rx rz
    limits (-45.0 45.0)
           (-45.0 45.0)
  end
  begin
     id 24 
     name rclavicle
     direction -0.815579 0.573708 -0.0754329   
     length 3.54371  
     axis 0 0 0   XYZ 
    dof ry rz
    limits (-10.0 20.0)
           (-20.0 0.0)
  end
  begin
     id 25 
     name rhumerus
     direction -1 -4.48956e-011 3.05351e-028  
     length 5.23924   
     axis 180 30 90   XYZ
    dof rx ry rz
    limits (-90.0 60.0)
           (-90.0 90.0)
           (-90.0 90.0)
  end
  begin
     id 26 
     name rradius
     direction -1 -4.49013e-011 3.53849e-027   
     length 3.32953   
     axis 180 30 90   XYZ
    dof rx
    limits (-10.0 170.0)
  end
  begin
     id 27 
     name rwrist
     direction -1 -4.48901e-011 1.19374e-026   
     length 1.66477   
     axis -8.46377e-015 -90 -90   XYZ
    dof ry
    limits (-180.0 0.0)
  end
  begin
     id 28
     name rhand
     direction -1 -4.48877e-011 2.38764e-026   
     length 0.607414   
     axis -1.52313e-014 -90 -90   XYZ
    dof rx rz
    limits (-90.0 90.0)
           (-45.0 45.0)
  end
  begin
     id 29
     name rfingers
     direction -1 -4.48882e-011 4.77521e-026   
     length 0.489712   
     axis -3.04623e-014 -90 -90   XYZ
    dof rx
    limits (0.0 90.0)
  end
  begin
     id 30
     name rthumb
     direction -0.707107 -6.34974e-011 0.707107   
     length 0.703132   
     axis -90 -45 1.62303e-014   XYZ
    dof rx rz
    limits (-45.0 45.0)
           (-45.0 45.0)
  end
:hierarchy
  begin
    root lhipjoint rhipjoint lowerback
    lhipjoint lfemur
    lfemur ltibia
    ltibia lfoot
    lfoot ltoes
    rhipjoint rfemur
    rfemur rtibia
    rtibia rfoot
    rfoot rtoes
    lowerback upperback
    upperback thorax
    thorax lowerneck lclavicle rclavicle
    lowerneck upperneck
    upperneck head
    lclavicle lhumerus
    lhumerus lradius
    lradius lwrist
    lwrist lhand lthumb
    lhand lfingers
    rclavicle rhumerus
    rhumerus rradius
    rradius rwrist
    rwrist rhand rthumb
    rhand rfingers
  end

#!OML:ASF E:\VariousWalksJay\Project 1\Capture day 1\Session 1\Actor2.ASF
:FULLY-SPECIFIED
:DEGREES
332
root 4.2226 16.1523 -0.960766 -0.0556259 18.7909 -14.4434
lowerback -5.2036 4.35775 6.69695
upperback -0.282473 5.4869 -2.33477
thorax 3.48365 2.86302 -5.70195
lowerneck -5.98623 -6.37454 -8.19432
upperneck -0.427851 -8.28805 14.7622
head 1.85824 -3.89264 5.46294
rclavicle -3.69739e-014 1.90833e-014
rhumerus -12.4358 33.5708 -82.3674
rradius 113.1
rwrist -5.87975
rhand -9.29698 10.1719
rfingers 7.12502
rthumb 16.6605 -19.1331
lclavicle -3.69739e-014 1.90833e-014
lhumerus -90.7421 -48.4132 109.234
lradius 62.3915
lwrist 26.5721
lhand -8.53315 -20.5554
lfingers 7.12502
lthumb 17.3958 8.68615
rfemur 12.1085 -12.5001 40.8172
rtibia 24.9768
rfoot -23.4766 6.52803
rtoes -8.49842
lfemur -47.9685 0.128939 -9.5047
ltibia 54.5689
lfoot -21.7749 -0.171222
ltoes -18.6072
333
root 4.25757 16.108 -0.774896 0.00267392 18.738 -14.251
lowerback -5.22881 4.31727 6.48665
upperback -0.277838 5.44721 -2.44035
thorax 3.48724 2.84133 -5.69731
lowerneck -5.91971 -6.33788 -8.18004
upperneck -0.451339 -8.24698 14.9654
head 1.8456 -3.87179 5.52799
rclavicle -2.94201e-014 1.43125e-014
rhumerus -14.087 33.688 -83.9077
rradius 111.849
rwrist -5.6585
rhand -9.40974 10.2943
rfingers 7.12502
rthumb 16.552 -19.0197
lclavicle -2.94201e-014 1.43125e-014
lhumerus -88.5939 -48.1057 107.978
lradius 61.8614
lwrist 26.6104
lhand -8.8484 -20.516
lfingers 7.12502
lthumb 17.0924 8.75212
rfemur 12.5976 -12.2365 40.6593
rtibia 25.4444
rfoot -23.2462 6.26183
rtoes -10.3934
lfemur -47.5423 -0.0136893 -9.64703
ltibia 55.0937
lfoot -21.3664 0.0526144
ltoes -17.4292
334
root 4.29229 16.0684 -0.591306 0.0293174 18.7189 -14.0164
lowerback -5.18075 4.2534 6.25243
upperback -0.249488 5.38247 -2.56027
thorax 3.47006 2.80707 -5.70126
lowerneck -5.86528 -6.30073 -8.1638
upperneck -0.520315 -8.19989 15.187
head 1.82182 -3.84836 5.59907
rclavicle 8.84592e-014 -1.27222e-014
rhumerus -15.801 33.694 -85.55
rradius 110.355
rwrist -5.47579
rhand -9.58587 10.393
rfingers 7.12502
rthumb 16.3824 -18.9352
lclavicle 8.84592e-014 -1.27222e-014
lhumerus -86.1045 -47.7176 106.512
lradius 61.1669
lwrist 26.675
lhand -9.22832 -20.4445
lfingers 7.12502
lthumb 16.7266 8.85487
rfemur 12.9329 -12.0469 40.4337
rtibia 26.2389
rfoot -22.8703 6.05474
rtoes -12.3296
lfemur -47.2324 -0.169157 -9.81133
ltibia 55.8397
lfoot -20.8704 0.306905
ltoes -16.0279
335
root 4.32671 16.0335 -0.411051 0.00601525 18.7228 -13.7505
lowerback -5.04431 4.17131 6.00137
upperback -0.191046 5.29895 -2.68332
thorax 3.43088 2.76348 -5.70579
lowerneck -5.81691 -6.26273 -8.15238
upperneck -0.636143 -8.14544 15.4159
head 1.78507 -3.8223 5.67415
rclavicle -1.17283e-014 -1.43125e-014
rhumerus -17.5539 33.572 -87.2556
rradius 108.602
rwrist -5.36972
rhand -9.8173 10.4806
rfingers 7.12502
rthumb 16.1596 -18.8658
lclavicle -1.17283e-014 -1.43125e-014
lhumerus -83.2786 -47.2257 104.868
lradius 60.2843
lwrist 26.7716
lhand -9.6924 -20.3191
lfingers 7.12502
lthumb 16.2798 9.0175
rfemur 13.0931 -11.9609 40.1251
rtibia 27.4206
rfoot -22.2989 5.97513
rtoes -14.1568
lfemur -46.9827 -0.307615 -10.0037
ltibia 56.715
lfoot -20.3144 0.542874
ltoes -14.3021
336
root 4.36124 16.0039 -0.234637 -0.0821268 18.7253 -13.4607
lowerback -4.79309 4.07908 5.78226
upperback -0.108494 5.20606 -2.83067
thorax 3.35657 2.71588 -5.7613
lowerneck -5.7763 -6.2191 -8.12449
upperneck -0.78016 -8.08037 15.655
head 1.73994 -3.79144 5.75052
rclavicle 7.93151e-014 -1.59028e-014
rhumerus -19.3257 33.2929 -89.039
rradius 106.568
rwrist -5.36181
rhand -10.1155 10.5537
rfingers 7.12502
rthumb 15.8725 -18.8157
lclavicle 7.93151e-014 -1.59028e-014
lhumerus -80.1501 -46.6194 103.042
lradius 59.2134
lwrist 26.9277
lhand -10.2267 -20.1395
lfingers 7.12502
lthumb 15.7653 9.23841
rfemur 13.0732 -11.9945 39.7092
rtibia 29.023
rfoot -21.4678 6.08193
rtoes -15.7118
lfemur -46.7054 -0.393819 -10.2342
ltibia 57.6153
lfoot -19.7757 0.772835
ltoes -12.3799
337
root 4.39654 15.9805 -0.0617287 -0.236344 18.6924 -13.1488
lowerback -4.44996 3.98409 5.57331
upperback 0.00456204 5.1119 -2.97437
thorax 3.26286 2.66814 -5.82315
lowerneck -5.7508 -6.16979 -8.09464
upperneck -0.929291 -8.0049 15.8694
head 1.69319 -3.75563 5.81926
rclavicle -1.90833e-014 0
rhumerus -21.0675 32.877 -90.8209
rradius 104.235
rwrist -5.50306
rhand -10.4684 10.6132
rfingers 7.12502
rthumb 15.5326 -18.783
lclavicle -1.90833e-014 0
lhumerus -76.7229 -45.8297 101.076
lradius 57.9507
lwrist 27.1507
lhand -10.8618 -19.9101
lfingers 7.12502
lthumb 15.1536 9.51504
rfemur 12.8731 -12.1329 39.1652
rtibia 31.0515
rfoot -20.3131 6.38688
rtoes -16.8601
lfemur -46.3115 -0.398444 -10.5099
ltibia 58.4406
lfoot -19.348 0.975545
ltoes -10.4424
338
root 4.43385 15.9643 0.108288 -0.440799 18.5974 -12.8072
lowerback -4.03393 3.89387 5.38259
upperback 0.134134 5.02492 -3.11993
thorax 3.1482 2.62424 -5.89991
lowerneck -5.73268 -6.10934 -8.05112
upperneck -1.05332 -7.91613 16.0479
head 1.65083 -3.71305 5.87486
rclavicle -7.11649e-014 6.36111e-015
rhumerus -22.7457 32.3188 -92.5707
rradius 101.587
rwrist -5.80113
rhand -10.8502 10.6719
rfingers 7.12502
rthumb 15.1648 -18.7524
lclavicle -7.11649e-014 6.36111e-015
lhumerus -73.0685 -44.815 99.0196
lradius 56.5109
lwrist 27.4341
lhand -11.6132 -19.6519
lfingers 7.12502
lthumb 14.4297 9.82648
rfemur 12.4904 -12.3371 38.4781
rtibia 33.4926
rfoot -18.7923 6.82804
rtoes -17.5321
lfemur -45.7342 -0.31162 -10.8428
ltibia 59.1106
lfoot -19.0912 1.12149
ltoes -8.56813
339
root 4.47439 15.956 0.27635 -0.66953 18.4171 -12.426
lowerback -3.57437 3.81063 5.20844
upperback 0.261562 4.94655 -3.26883
thorax 3.0097 2.58428 -5.99088
lowerneck -5.72084 -6.03457 -7.9857
upperneck -1.11302 -7.81489 16.172
head 1.6229 -3.66322 5.90967
rclavicle 6.97734e-014 4.77083e-014
rhumerus -24.3338 31.6417 -94.2595
rradius 98.6143
rwrist -6.26931
rhand -11.265 10.7219
rfingers 7.12502
rthumb 14.7652 -18.7322
lclavicle 6.97734e-014 4.77083e-014
lhumerus -69.2537 -43.5059 96.9058
lradius 54.9287
lwrist 27.808
lhand -12.44 -19.3391
lfingers 7.12502
lthumb 13.633 10.1944
rfemur 11.9487 -12.5524 37.6458
rtibia 36.2534
rfoot -16.8854 7.27039
rtoes -17.8233
lfemur -44.9243 -0.138365 -11.2393
ltibia 59.5417
lfoot -18.9926 1.24035
ltoes -6.91535
340
root 4.51871 15.956 0.443183 -0.878996 18.1552 -11.9825
lowerback -3.11456 3.73058 5.01917
upperback 0.368382 4.87099 -3.42235
thorax 2.84898 2.54434 -6.07786
lowerneck -5.71668 -5.94466 -7.89216
upperneck -1.08038 -7.70387 16.2311
head 1.61732 -3.60662 5.91874
rclavicle -2.18663e-014 -1.27222e-014
rhumerus -25.8027 30.8706 -95.8527
rradius 95.3159
rwrist -6.90201
rhand -11.7069 10.771
rfingers 7.12502
rthumb 14.3395 -18.7138
lclavicle -2.18663e-014 -1.27222e-014
lhumerus -65.3687 -41.8477 94.7989
lradius 53.2495
lwrist 28.2527
lhand -13.358 -18.9159
lfingers 7.12502
lthumb 12.7481 10.675
rfemur 11.1813 -12.7308 36.6729
rtibia 39.3887
rfoot -14.7209 7.55451
rtoes -17.921
lfemur -43.9174 0.0887097 -11.7112
ltibia 59.7625
lfoot -19.1241 1.36101
ltoes -5.5707
341
root 4.56761 15.9804 0.612814 -1.03384 17.8203 -11.4527
lowerback -2.68655 3.64564 4.79521
upperback 0.444481 4.78669 -3.58722
thorax 2.67095 2.49829 -6.15599
lowerneck -5.72824 -5.83599 -7.76832
upperneck -0.942894 -7.57974 16.2279
head 1.63887 -3.54066 5.90241
rclavicle -5.24792e-014 1.90833e-014
rhumerus -27.1199 30.0383 -97.3212
rradius 91.6986
rwrist -7.63132
rhand -12.205 10.816
rfingers 7.12502
rthumb 13.8595 -18.7022
lclavicle -5.24792e-014 1.90833e-014
lhumerus -61.501 -39.7993 92.753
lradius 51.5293
lwrist 28.7715
lhand -14.3654 -18.4752
lfingers 7.12502
lthumb 11.7767 11.1737
rfemur 10.1865 -12.8328 35.5613
rtibia 42.8266
rfoot -12.4574 7.49514
rtoes -18.279
lfemur -42.6756 0.329829 -12.265
ltibia 59.7281
lfoot -19.5066 1.51859
ltoes -4.53713
342
root 4.62061 15.9941 0.776453 -1.10669 17.4401 -10.8241
lowerback -2.31691 3.54691 4.50426
upperback 0.483216 4.68136 -3.7644
thorax 2.47947 2.4395 -6.20713
lowerneck -5.75619 -5.70851 -7.61399
upperneck -0.709263 -7.44167 16.1724
head 1.68577 -3.46488 5.86398
rclavicle -3.4191e-014 2.8625e-014
rhumerus -28.2711 29.1581 -98.6412
rradius 87.7988
rwrist -8.41622
rhand -12.7346 10.8594
rfingers 7.12502
rthumb 13.349 -18.693
lclavicle -3.4191e-014 2.8625e-014
lhumerus -57.7287 -37.351 90.824
lradius 49.8256
lwrist 29.3209
lhand -15.4445 -18.0201
lfingers 7.12502
lthumb 10.7361 11.6856
rfemur 8.91002 -12.8397 34.3461
rtibia 46.6102
rfoot -10.3656 7.13013
rtoes -18.9002
lfemur -41.4637 0.519722 -12.9264
ltibia 59.6037
lfoot -19.9952 1.77729
ltoes -3.85309
343
root 4.67655 16.0124 0.938083 -1.02278 17.0318 -10.0993
lowerback -2.08486 3.4345 4.13386
upperback 0.469175 4.55275 -3.95527
thorax 2.30241 2.36718 -6.22105
lowerneck -5.80674 -5.56578 -7.43472
upperneck -0.40059 -7.29169 16.0797
head 1.75443 -3.38031 5.80921
rclavicle -2.94201e-014 3.49861e-014
rhumerus -29.2527 28.2365 -99.7921
rradius 83.6672
rwrist -9.16634
rhand -13.3013 10.8875
rfingers 7.12502
rthumb 12.8028 -18.6999
lclavicle -2.94201e-014 3.49861e-014
lhumerus -54.1017 -34.5207 89.0535
lradius 48.1926
lwrist 29.8504
lhand -16.5854 -17.5799
lfingers 7.12502
lthumb 9.63538 12.1797
rfemur 7.29379 -12.7329 33.0719
rtibia 50.6525
rfoot -8.60247 6.48999
rtoes -19.7675
lfemur -40.3172 0.647879 -13.6839
ltibia 59.3582
lfoot -20.5506 2.15022
ltoes -3.4687
344
root 4.73527 16.034 1.09633 -0.89519 16.6359 -9.30043
lowerback -1.89061 3.294 3.70446
upperback 0.446567 4.38454 -4.14974
thorax 2.1288 2.27447 -6.20422
lowerneck -5.89285 -5.41236 -7.23981
upperneck -0.0538678 -7.13095 15.9693
head 1.83796 -3.28773 5.74589
rclavicle 2.22639e-014 3.81667e-014
rhumerus -30.0606 27.2645 -100.751
rradius 79.3668
rwrist -9.7931
rhand -13.8924 10.8841
rfingers 7.12502
rthumb 12.2328 -18.7382
lclavicle 2.22639e-014 3.81667e-014
lhumerus -50.6599 -31.3586 87.4793
lradius 46.7031
lwrist 30.2912
lhand -17.7467 -17.2602
lfingers 7.12502
lthumb 8.51481 12.5481
rfemur 5.45859 -12.5768 31.7423
rtibia 54.9229
rfoot -7.32255 5.66997
rtoes -20.7195
lfemur -39.1696 0.679326 -14.5272
ltibia 59.0528
lfoot -21.1523 2.61054
ltoes -3.31368
